<mxfile host="app.diagrams.net" modified="2024-04-12T02:19:31.302Z" agent="Mozilla/5.0 (Windows NT 10.0; Win64; x64) AppleWebKit/537.36 (KHTML, like Gecko) Chrome/123.0.0.0 Safari/537.36" etag="DHDuCm09--r0J-TQkYDV" version="24.2.3" type="device">
  <diagram name="페이지-1" id="fLK22L0cyS2KONPvhXHz">
    <mxGraphModel dx="6066" dy="696" grid="1" gridSize="10" guides="1" tooltips="1" connect="1" arrows="1" fold="1" page="1" pageScale="1" pageWidth="827" pageHeight="1169" math="0" shadow="0">
      <root>
        <mxCell id="0" />
        <mxCell id="1" parent="0" />
        <mxCell id="fRdi2J-xlvi1yjMBcKha-88" value="스마트 홈 정보 카테고리 선택" style="whiteSpace=wrap;html=1;rounded=1;shadow=1;strokeWidth=1;fontSize=16;align=center;fillColor=#f5f5f5;strokeColor=#666666;" parent="1" vertex="1">
          <mxGeometry x="-1170" y="2255.63" width="125" height="45" as="geometry" />
        </mxCell>
        <mxCell id="fRdi2J-xlvi1yjMBcKha-91" value="게시글 수정" style="whiteSpace=wrap;html=1;rounded=1;shadow=1;strokeWidth=1;fontSize=16;align=center;fillColor=#f5f5f5;strokeColor=#666666;" parent="1" vertex="1">
          <mxGeometry x="-1170" y="2416.38" width="125" height="45" as="geometry" />
        </mxCell>
        <mxCell id="fRdi2J-xlvi1yjMBcKha-92" value="게시글 삭제" style="whiteSpace=wrap;html=1;rounded=1;shadow=1;strokeWidth=1;fontSize=16;align=center;fillColor=#f5f5f5;strokeColor=#666666;" parent="1" vertex="1">
          <mxGeometry x="-1170" y="2493.88" width="125" height="45" as="geometry" />
        </mxCell>
        <mxCell id="fRdi2J-xlvi1yjMBcKha-95" value="통합 관리자" style="whiteSpace=wrap;html=1;rounded=1;shadow=1;strokeWidth=1;fontSize=16;align=center;fillColor=#f5f5f5;strokeColor=#666666;" parent="1" vertex="1">
          <mxGeometry x="140" y="1960" width="210" height="40" as="geometry" />
        </mxCell>
        <mxCell id="fRdi2J-xlvi1yjMBcKha-96" value="일반 사용자" style="whiteSpace=wrap;html=1;rounded=1;shadow=1;strokeWidth=1;fontSize=16;align=center;fillColor=#f5f5f5;strokeColor=#666666;" parent="1" vertex="1">
          <mxGeometry x="-1830" y="1960" width="1920" height="40" as="geometry" />
        </mxCell>
        <mxCell id="fRdi2J-xlvi1yjMBcKha-257" style="edgeStyle=orthogonalEdgeStyle;rounded=0;orthogonalLoop=1;jettySize=auto;html=1;exitX=0.5;exitY=1;exitDx=0;exitDy=0;entryX=0.5;entryY=0;entryDx=0;entryDy=0;" parent="1" source="fRdi2J-xlvi1yjMBcKha-98" target="fRdi2J-xlvi1yjMBcKha-176" edge="1">
          <mxGeometry relative="1" as="geometry">
            <Array as="points">
              <mxPoint x="20" y="2650" />
              <mxPoint x="-294" y="2650" />
            </Array>
          </mxGeometry>
        </mxCell>
        <mxCell id="fRdi2J-xlvi1yjMBcKha-258" style="edgeStyle=orthogonalEdgeStyle;rounded=0;orthogonalLoop=1;jettySize=auto;html=1;exitX=0.5;exitY=1;exitDx=0;exitDy=0;entryX=0.5;entryY=0;entryDx=0;entryDy=0;" parent="1" source="fRdi2J-xlvi1yjMBcKha-98" target="fRdi2J-xlvi1yjMBcKha-179" edge="1">
          <mxGeometry relative="1" as="geometry">
            <Array as="points">
              <mxPoint x="20" y="2650" />
              <mxPoint x="341" y="2650" />
            </Array>
          </mxGeometry>
        </mxCell>
        <mxCell id="fRdi2J-xlvi1yjMBcKha-259" style="edgeStyle=orthogonalEdgeStyle;rounded=0;orthogonalLoop=1;jettySize=auto;html=1;exitX=0.5;exitY=1;exitDx=0;exitDy=0;entryX=0.5;entryY=0;entryDx=0;entryDy=0;" parent="1" source="fRdi2J-xlvi1yjMBcKha-98" target="fRdi2J-xlvi1yjMBcKha-178" edge="1">
          <mxGeometry relative="1" as="geometry">
            <Array as="points">
              <mxPoint x="20" y="2650" />
              <mxPoint x="-616" y="2650" />
            </Array>
          </mxGeometry>
        </mxCell>
        <mxCell id="fRdi2J-xlvi1yjMBcKha-260" style="edgeStyle=orthogonalEdgeStyle;rounded=0;orthogonalLoop=1;jettySize=auto;html=1;exitX=0.5;exitY=1;exitDx=0;exitDy=0;entryX=0.5;entryY=0;entryDx=0;entryDy=0;" parent="1" source="fRdi2J-xlvi1yjMBcKha-98" target="fRdi2J-xlvi1yjMBcKha-180" edge="1">
          <mxGeometry relative="1" as="geometry">
            <Array as="points">
              <mxPoint x="20" y="2649" />
              <mxPoint x="21" y="2649" />
              <mxPoint x="21" y="2650" />
              <mxPoint x="661" y="2650" />
            </Array>
          </mxGeometry>
        </mxCell>
        <mxCell id="fRdi2J-xlvi1yjMBcKha-98" value="음성 제어" style="whiteSpace=wrap;html=1;rounded=1;shadow=1;strokeWidth=1;fontSize=16;align=center;fillColor=#f5f5f5;strokeColor=#666666;" parent="1" vertex="1">
          <mxGeometry x="-43" y="2421.51" width="125" height="50" as="geometry" />
        </mxCell>
        <mxCell id="fRdi2J-xlvi1yjMBcKha-99" value="&lt;font style=&quot;font-size: 25px;&quot;&gt;Application&lt;/font&gt;" style="whiteSpace=wrap;html=1;rounded=1;shadow=1;strokeWidth=1;fontSize=16;align=center;fillColor=#dae8fc;strokeColor=#6c8ebf;" parent="1" vertex="1">
          <mxGeometry x="-1830" y="1780" width="2203" height="40" as="geometry" />
        </mxCell>
        <mxCell id="fRdi2J-xlvi1yjMBcKha-100" value="보유기기 삭제" style="whiteSpace=wrap;html=1;rounded=1;shadow=1;strokeWidth=1;fontSize=16;align=center;fillColor=#f5f5f5;strokeColor=#666666;" parent="1" vertex="1">
          <mxGeometry x="1131.63" y="2205" width="125" height="50" as="geometry" />
        </mxCell>
        <mxCell id="fRdi2J-xlvi1yjMBcKha-255" style="edgeStyle=orthogonalEdgeStyle;rounded=0;orthogonalLoop=1;jettySize=auto;html=1;exitX=0.5;exitY=1;exitDx=0;exitDy=0;entryX=0.5;entryY=0;entryDx=0;entryDy=0;" parent="1" source="fRdi2J-xlvi1yjMBcKha-102" target="fRdi2J-xlvi1yjMBcKha-177" edge="1">
          <mxGeometry relative="1" as="geometry">
            <mxPoint x="56" y="2811.01" as="targetPoint" />
            <Array as="points">
              <mxPoint x="-287" y="2561" />
              <mxPoint x="-291" y="2561" />
              <mxPoint x="-291" y="2560" />
              <mxPoint x="20" y="2560" />
            </Array>
          </mxGeometry>
        </mxCell>
        <mxCell id="fRdi2J-xlvi1yjMBcKha-102" value="버튼 제어" style="whiteSpace=wrap;html=1;rounded=1;shadow=1;strokeWidth=1;fontSize=16;align=center;fillColor=#f5f5f5;strokeColor=#666666;" parent="1" vertex="1">
          <mxGeometry x="-349.75" y="2421.51" width="125" height="50" as="geometry" />
        </mxCell>
        <mxCell id="fRdi2J-xlvi1yjMBcKha-256" style="edgeStyle=orthogonalEdgeStyle;rounded=0;orthogonalLoop=1;jettySize=auto;html=1;exitX=0.5;exitY=1;exitDx=0;exitDy=0;" parent="1" source="fRdi2J-xlvi1yjMBcKha-138" target="fRdi2J-xlvi1yjMBcKha-177" edge="1">
          <mxGeometry relative="1" as="geometry">
            <Array as="points">
              <mxPoint x="727" y="2560" />
              <mxPoint x="21" y="2560" />
            </Array>
          </mxGeometry>
        </mxCell>
        <mxCell id="fRdi2J-xlvi1yjMBcKha-138" value="버튼 제어" style="whiteSpace=wrap;html=1;rounded=1;shadow=1;strokeWidth=1;fontSize=16;align=center;fillColor=#f5f5f5;strokeColor=#666666;" parent="1" vertex="1">
          <mxGeometry x="664.13" y="2421.51" width="125" height="50" as="geometry" />
        </mxCell>
        <mxCell id="fRdi2J-xlvi1yjMBcKha-142" value="등록된 스마트 홈&lt;div&gt;&amp;nbsp;기기&amp;nbsp;목록&amp;nbsp; 확인&lt;/div&gt;" style="whiteSpace=wrap;html=1;rounded=1;shadow=1;strokeWidth=1;fontSize=16;align=center;fillColor=#f5f5f5;strokeColor=#666666;" parent="1" vertex="1">
          <mxGeometry x="-357.56" y="2072.63" width="140.62" height="45" as="geometry" />
        </mxCell>
        <mxCell id="fRdi2J-xlvi1yjMBcKha-146" value="" style="endArrow=classic;html=1;rounded=0;exitX=0.5;exitY=1;exitDx=0;exitDy=0;entryX=0.5;entryY=0;entryDx=0;entryDy=0;" parent="1" source="fRdi2J-xlvi1yjMBcKha-142" target="fRdi2J-xlvi1yjMBcKha-149" edge="1">
          <mxGeometry width="50" height="50" relative="1" as="geometry">
            <mxPoint x="-277.75" y="2123.13" as="sourcePoint" />
            <mxPoint x="-287.25" y="2225.63" as="targetPoint" />
          </mxGeometry>
        </mxCell>
        <mxCell id="fRdi2J-xlvi1yjMBcKha-147" style="edgeStyle=orthogonalEdgeStyle;rounded=0;orthogonalLoop=1;jettySize=auto;html=1;exitX=0.5;exitY=1;exitDx=0;exitDy=0;" parent="1" source="fRdi2J-xlvi1yjMBcKha-149" target="fRdi2J-xlvi1yjMBcKha-102" edge="1">
          <mxGeometry relative="1" as="geometry" />
        </mxCell>
        <mxCell id="fRdi2J-xlvi1yjMBcKha-148" style="edgeStyle=orthogonalEdgeStyle;rounded=0;orthogonalLoop=1;jettySize=auto;html=1;exitX=0.5;exitY=1;exitDx=0;exitDy=0;entryX=0.5;entryY=0;entryDx=0;entryDy=0;" parent="1" source="fRdi2J-xlvi1yjMBcKha-149" target="fRdi2J-xlvi1yjMBcKha-98" edge="1">
          <mxGeometry relative="1" as="geometry" />
        </mxCell>
        <mxCell id="fRdi2J-xlvi1yjMBcKha-149" value="등록된 스마트 홈 기기 선택" style="whiteSpace=wrap;html=1;rounded=1;shadow=1;strokeWidth=1;fontSize=16;align=center;fillColor=#f5f5f5;strokeColor=#666666;" parent="1" vertex="1">
          <mxGeometry x="-349.75" y="2172.5" width="125" height="50" as="geometry" />
        </mxCell>
        <mxCell id="fRdi2J-xlvi1yjMBcKha-151" value="게시글 관리" style="whiteSpace=wrap;html=1;rounded=1;shadow=1;strokeWidth=1;fontSize=16;align=center;fillColor=#f5f5f5;strokeColor=#666666;" parent="1" vertex="1">
          <mxGeometry x="182.5" y="2207.5" width="125" height="45" as="geometry" />
        </mxCell>
        <mxCell id="fRdi2J-xlvi1yjMBcKha-152" value="회원 관리" style="whiteSpace=wrap;html=1;rounded=1;shadow=1;strokeWidth=1;fontSize=16;align=center;fillColor=#f5f5f5;strokeColor=#666666;" parent="1" vertex="1">
          <mxGeometry x="182.5" y="2049.5" width="125" height="45" as="geometry" />
        </mxCell>
        <mxCell id="fRdi2J-xlvi1yjMBcKha-153" value="게시판 관리" style="whiteSpace=wrap;html=1;rounded=1;shadow=1;strokeWidth=1;fontSize=16;align=center;fillColor=#f5f5f5;strokeColor=#666666;" parent="1" vertex="1">
          <mxGeometry x="182.5" y="2127.5" width="125" height="45" as="geometry" />
        </mxCell>
        <mxCell id="fRdi2J-xlvi1yjMBcKha-154" value="요청된 기기 등록" style="whiteSpace=wrap;html=1;rounded=1;shadow=1;strokeWidth=1;fontSize=16;align=center;fillColor=#f5f5f5;strokeColor=#666666;" parent="1" vertex="1">
          <mxGeometry x="182.5" y="2287.5" width="125" height="45" as="geometry" />
        </mxCell>
        <mxCell id="fRdi2J-xlvi1yjMBcKha-158" value="Zigbee Hub 일반 사용자" style="whiteSpace=wrap;html=1;rounded=1;shadow=1;strokeWidth=1;fontSize=16;align=center;fillColor=#f5f5f5;strokeColor=#666666;" parent="1" vertex="1">
          <mxGeometry x="615" y="1880" width="210" height="40" as="geometry" />
        </mxCell>
        <mxCell id="fRdi2J-xlvi1yjMBcKha-175" value="&lt;font style=&quot;font-size: 25px;&quot;&gt;Zigbee Hub&lt;/font&gt;" style="whiteSpace=wrap;html=1;rounded=1;shadow=1;strokeWidth=1;fontSize=16;align=center;fillColor=#dae8fc;strokeColor=#6c8ebf;" parent="1" vertex="1">
          <mxGeometry x="478.5" y="1780" width="781.5" height="40" as="geometry" />
        </mxCell>
        <mxCell id="fRdi2J-xlvi1yjMBcKha-176" value="세탁기" style="whiteSpace=wrap;html=1;rounded=1;shadow=1;strokeWidth=1;fontSize=16;align=center;fillColor=#dae8fc;strokeColor=#6c8ebf;" parent="1" vertex="1">
          <mxGeometry x="-431.5" y="2831.01" width="275" height="40" as="geometry" />
        </mxCell>
        <mxCell id="fRdi2J-xlvi1yjMBcKha-177" value="에어컨" style="whiteSpace=wrap;html=1;rounded=1;shadow=1;strokeWidth=1;fontSize=16;align=center;fillColor=#dae8fc;strokeColor=#6c8ebf;" parent="1" vertex="1">
          <mxGeometry x="-118" y="2831.01" width="275" height="40" as="geometry" />
        </mxCell>
        <mxCell id="fRdi2J-xlvi1yjMBcKha-178" value="TV" style="whiteSpace=wrap;html=1;rounded=1;shadow=1;strokeWidth=1;fontSize=16;align=center;fillColor=#dae8fc;strokeColor=#6c8ebf;" parent="1" vertex="1">
          <mxGeometry x="-753.5" y="2831.01" width="275" height="40" as="geometry" />
        </mxCell>
        <mxCell id="fRdi2J-xlvi1yjMBcKha-179" value="건조기" style="whiteSpace=wrap;html=1;rounded=1;shadow=1;strokeWidth=1;fontSize=16;align=center;fillColor=#dae8fc;strokeColor=#6c8ebf;" parent="1" vertex="1">
          <mxGeometry x="203.5" y="2831.01" width="275" height="40" as="geometry" />
        </mxCell>
        <mxCell id="fRdi2J-xlvi1yjMBcKha-180" value="조명" style="whiteSpace=wrap;html=1;rounded=1;shadow=1;strokeWidth=1;fontSize=16;align=center;fillColor=#dae8fc;strokeColor=#6c8ebf;" parent="1" vertex="1">
          <mxGeometry x="523.5" y="2831.01" width="275" height="40" as="geometry" />
        </mxCell>
        <mxCell id="fRdi2J-xlvi1yjMBcKha-181" value="시간 설정 관리" style="whiteSpace=wrap;html=1;rounded=1;shadow=1;strokeWidth=1;fontSize=16;align=center;fillColor=#f5f5f5;strokeColor=#666666;" parent="1" vertex="1">
          <mxGeometry x="-358" y="3026.01" width="125" height="45" as="geometry" />
        </mxCell>
        <mxCell id="fRdi2J-xlvi1yjMBcKha-182" value="모드 변경 관리" style="whiteSpace=wrap;html=1;rounded=1;shadow=1;strokeWidth=1;fontSize=16;align=center;fillColor=#f5f5f5;strokeColor=#666666;" parent="1" vertex="1">
          <mxGeometry x="-358" y="3116.01" width="125" height="50" as="geometry" />
        </mxCell>
        <mxCell id="fRdi2J-xlvi1yjMBcKha-183" value="On/Off 관리" style="whiteSpace=wrap;html=1;rounded=1;shadow=1;strokeWidth=1;fontSize=16;align=center;fillColor=#f5f5f5;strokeColor=#666666;" parent="1" vertex="1">
          <mxGeometry x="-43" y="3026.01" width="125" height="45" as="geometry" />
        </mxCell>
        <mxCell id="fRdi2J-xlvi1yjMBcKha-184" value="온도 조절 관리" style="whiteSpace=wrap;html=1;rounded=1;shadow=1;strokeWidth=1;fontSize=16;align=center;fillColor=#f5f5f5;strokeColor=#666666;" parent="1" vertex="1">
          <mxGeometry x="-43" y="3116.01" width="125" height="50" as="geometry" />
        </mxCell>
        <mxCell id="fRdi2J-xlvi1yjMBcKha-185" value="메뉴 관리" style="whiteSpace=wrap;html=1;rounded=1;shadow=1;strokeWidth=1;fontSize=16;align=center;fillColor=#f5f5f5;strokeColor=#666666;" parent="1" vertex="1">
          <mxGeometry x="-680" y="3116.01" width="125" height="50" as="geometry" />
        </mxCell>
        <mxCell id="fRdi2J-xlvi1yjMBcKha-186" value="On/Off 관리" style="whiteSpace=wrap;html=1;rounded=1;shadow=1;strokeWidth=1;fontSize=16;align=center;fillColor=#f5f5f5;strokeColor=#666666;" parent="1" vertex="1">
          <mxGeometry x="-680" y="3026.01" width="125" height="45" as="geometry" />
        </mxCell>
        <mxCell id="fRdi2J-xlvi1yjMBcKha-187" value="모드 변경" style="whiteSpace=wrap;html=1;rounded=1;shadow=1;strokeWidth=1;fontSize=16;align=center;fillColor=#f5f5f5;strokeColor=#666666;" parent="1" vertex="1">
          <mxGeometry x="277" y="3026.01" width="125" height="45" as="geometry" />
        </mxCell>
        <mxCell id="fRdi2J-xlvi1yjMBcKha-188" value="시간 설정 관리" style="whiteSpace=wrap;html=1;rounded=1;shadow=1;strokeWidth=1;fontSize=16;align=center;fillColor=#f5f5f5;strokeColor=#666666;" parent="1" vertex="1">
          <mxGeometry x="277" y="3116.01" width="125" height="50" as="geometry" />
        </mxCell>
        <mxCell id="fRdi2J-xlvi1yjMBcKha-189" value="On/Off 관리" style="whiteSpace=wrap;html=1;rounded=1;shadow=1;strokeWidth=1;fontSize=16;align=center;fillColor=#f5f5f5;strokeColor=#666666;" parent="1" vertex="1">
          <mxGeometry x="597" y="3026.01" width="125" height="45" as="geometry" />
        </mxCell>
        <mxCell id="fRdi2J-xlvi1yjMBcKha-190" value="조명 밝기 관리" style="whiteSpace=wrap;html=1;rounded=1;shadow=1;strokeWidth=1;fontSize=16;align=center;fillColor=#f5f5f5;strokeColor=#666666;" parent="1" vertex="1">
          <mxGeometry x="597" y="3116.01" width="125" height="50" as="geometry" />
        </mxCell>
        <mxCell id="fRdi2J-xlvi1yjMBcKha-191" value="모드 변경" style="whiteSpace=wrap;html=1;rounded=1;shadow=1;strokeWidth=1;fontSize=16;align=center;fillColor=#f5f5f5;strokeColor=#666666;" parent="1" vertex="1">
          <mxGeometry x="-43" y="3216.01" width="125" height="50" as="geometry" />
        </mxCell>
        <mxCell id="fRdi2J-xlvi1yjMBcKha-192" value="&lt;span&gt;바람 세기 관리&lt;/span&gt;" style="whiteSpace=wrap;html=1;rounded=1;shadow=1;strokeWidth=1;fontSize=16;align=center;fillColor=#f5f5f5;strokeColor=#666666;" parent="1" vertex="1">
          <mxGeometry x="-43" y="3316.01" width="125" height="50" as="geometry" />
        </mxCell>
        <mxCell id="fRdi2J-xlvi1yjMBcKha-193" value="조이스틱 기능" style="whiteSpace=wrap;html=1;rounded=1;shadow=1;strokeWidth=1;fontSize=16;align=center;fillColor=#f5f5f5;strokeColor=#666666;" parent="1" vertex="1">
          <mxGeometry x="-680" y="3316.01" width="125" height="50" as="geometry" />
        </mxCell>
        <mxCell id="fRdi2J-xlvi1yjMBcKha-194" value="채널 변경 관리" style="whiteSpace=wrap;html=1;rounded=1;shadow=1;strokeWidth=1;fontSize=16;align=center;fillColor=#f5f5f5;strokeColor=#666666;" parent="1" vertex="1">
          <mxGeometry x="-680" y="3216.01" width="125" height="50" as="geometry" />
        </mxCell>
        <mxCell id="fRdi2J-xlvi1yjMBcKha-195" value="메뉴 검색" style="whiteSpace=wrap;html=1;rounded=1;shadow=1;strokeWidth=1;fontSize=16;align=center;fillColor=#f5f5f5;strokeColor=#666666;" parent="1" vertex="1">
          <mxGeometry x="-680" y="3411.01" width="125" height="50" as="geometry" />
        </mxCell>
        <mxCell id="fRdi2J-xlvi1yjMBcKha-238" style="edgeStyle=orthogonalEdgeStyle;rounded=0;orthogonalLoop=1;jettySize=auto;html=1;exitX=0.5;exitY=1;exitDx=0;exitDy=0;entryX=0.5;entryY=0;entryDx=0;entryDy=0;" parent="1" source="fRdi2J-xlvi1yjMBcKha-231" target="fRdi2J-xlvi1yjMBcKha-138" edge="1">
          <mxGeometry relative="1" as="geometry" />
        </mxCell>
        <mxCell id="eHFhJmLxudtT3SvOu0Rl-103" style="edgeStyle=orthogonalEdgeStyle;rounded=0;orthogonalLoop=1;jettySize=auto;html=1;exitX=0.5;exitY=1;exitDx=0;exitDy=0;" edge="1" parent="1" source="fRdi2J-xlvi1yjMBcKha-231" target="eHFhJmLxudtT3SvOu0Rl-102">
          <mxGeometry relative="1" as="geometry">
            <Array as="points">
              <mxPoint x="727" y="2320" />
              <mxPoint x="553" y="2320" />
            </Array>
          </mxGeometry>
        </mxCell>
        <mxCell id="fRdi2J-xlvi1yjMBcKha-231" value="등록된 스마트 홈 기기 선택" style="whiteSpace=wrap;html=1;rounded=1;shadow=1;strokeWidth=1;fontSize=16;align=center;fillColor=#f5f5f5;strokeColor=#666666;" parent="1" vertex="1">
          <mxGeometry x="664.13" y="2127.5" width="125" height="50" as="geometry" />
        </mxCell>
        <mxCell id="eHFhJmLxudtT3SvOu0Rl-21" style="edgeStyle=orthogonalEdgeStyle;rounded=0;orthogonalLoop=1;jettySize=auto;html=1;exitX=0.5;exitY=1;exitDx=0;exitDy=0;" edge="1" parent="1" source="fRdi2J-xlvi1yjMBcKha-234" target="fRdi2J-xlvi1yjMBcKha-231">
          <mxGeometry relative="1" as="geometry" />
        </mxCell>
        <mxCell id="fRdi2J-xlvi1yjMBcKha-234" value="등록된 스마트 홈&lt;div&gt;&amp;nbsp;기기&amp;nbsp;목록&amp;nbsp; 확인&lt;/div&gt;" style="whiteSpace=wrap;html=1;rounded=1;shadow=1;strokeWidth=1;fontSize=16;align=center;fillColor=#f5f5f5;strokeColor=#666666;" parent="1" vertex="1">
          <mxGeometry x="653.9499999999999" y="2046.75" width="145.37" height="50.5" as="geometry" />
        </mxCell>
        <mxCell id="fRdi2J-xlvi1yjMBcKha-266" style="edgeStyle=orthogonalEdgeStyle;rounded=0;orthogonalLoop=1;jettySize=auto;html=1;exitX=0.5;exitY=1;exitDx=0;exitDy=0;entryX=0.5;entryY=0;entryDx=0;entryDy=0;" parent="1" source="fRdi2J-xlvi1yjMBcKha-240" target="fRdi2J-xlvi1yjMBcKha-186" edge="1">
          <mxGeometry relative="1" as="geometry" />
        </mxCell>
        <mxCell id="fRdi2J-xlvi1yjMBcKha-240" value="기기 제어" style="whiteSpace=wrap;html=1;rounded=1;shadow=1;strokeWidth=1;fontSize=16;align=center;fillColor=#f5f5f5;strokeColor=#666666;" parent="1" vertex="1">
          <mxGeometry x="-680" y="2931.01" width="125" height="45" as="geometry" />
        </mxCell>
        <mxCell id="fRdi2J-xlvi1yjMBcKha-267" style="edgeStyle=orthogonalEdgeStyle;rounded=0;orthogonalLoop=1;jettySize=auto;html=1;exitX=0.5;exitY=1;exitDx=0;exitDy=0;entryX=0.5;entryY=0;entryDx=0;entryDy=0;" parent="1" source="fRdi2J-xlvi1yjMBcKha-261" target="fRdi2J-xlvi1yjMBcKha-181" edge="1">
          <mxGeometry relative="1" as="geometry" />
        </mxCell>
        <mxCell id="fRdi2J-xlvi1yjMBcKha-261" value="기기 제어" style="whiteSpace=wrap;html=1;rounded=1;shadow=1;strokeWidth=1;fontSize=16;align=center;fillColor=#f5f5f5;strokeColor=#666666;" parent="1" vertex="1">
          <mxGeometry x="-358" y="2931.01" width="125" height="45" as="geometry" />
        </mxCell>
        <mxCell id="fRdi2J-xlvi1yjMBcKha-268" style="edgeStyle=orthogonalEdgeStyle;rounded=0;orthogonalLoop=1;jettySize=auto;html=1;exitX=0.5;exitY=1;exitDx=0;exitDy=0;entryX=0.5;entryY=0;entryDx=0;entryDy=0;" parent="1" source="fRdi2J-xlvi1yjMBcKha-262" target="fRdi2J-xlvi1yjMBcKha-183" edge="1">
          <mxGeometry relative="1" as="geometry" />
        </mxCell>
        <mxCell id="fRdi2J-xlvi1yjMBcKha-262" value="기기 제어" style="whiteSpace=wrap;html=1;rounded=1;shadow=1;strokeWidth=1;fontSize=16;align=center;fillColor=#f5f5f5;strokeColor=#666666;" parent="1" vertex="1">
          <mxGeometry x="-42.5" y="2931.01" width="125" height="45" as="geometry" />
        </mxCell>
        <mxCell id="fRdi2J-xlvi1yjMBcKha-270" style="edgeStyle=orthogonalEdgeStyle;rounded=0;orthogonalLoop=1;jettySize=auto;html=1;exitX=0.5;exitY=1;exitDx=0;exitDy=0;entryX=0.5;entryY=0;entryDx=0;entryDy=0;" parent="1" source="fRdi2J-xlvi1yjMBcKha-263" target="fRdi2J-xlvi1yjMBcKha-189" edge="1">
          <mxGeometry relative="1" as="geometry" />
        </mxCell>
        <mxCell id="fRdi2J-xlvi1yjMBcKha-263" value="기기 제어" style="whiteSpace=wrap;html=1;rounded=1;shadow=1;strokeWidth=1;fontSize=16;align=center;fillColor=#f5f5f5;strokeColor=#666666;" parent="1" vertex="1">
          <mxGeometry x="597" y="2931.01" width="125" height="45" as="geometry" />
        </mxCell>
        <mxCell id="fRdi2J-xlvi1yjMBcKha-269" style="edgeStyle=orthogonalEdgeStyle;rounded=0;orthogonalLoop=1;jettySize=auto;html=1;exitX=0.5;exitY=1;exitDx=0;exitDy=0;entryX=0.5;entryY=0;entryDx=0;entryDy=0;" parent="1" source="fRdi2J-xlvi1yjMBcKha-264" target="fRdi2J-xlvi1yjMBcKha-187" edge="1">
          <mxGeometry relative="1" as="geometry" />
        </mxCell>
        <mxCell id="fRdi2J-xlvi1yjMBcKha-264" value="기기 제어" style="whiteSpace=wrap;html=1;rounded=1;shadow=1;strokeWidth=1;fontSize=16;align=center;fillColor=#f5f5f5;strokeColor=#666666;" parent="1" vertex="1">
          <mxGeometry x="277" y="2931.01" width="125" height="45" as="geometry" />
        </mxCell>
        <mxCell id="eHFhJmLxudtT3SvOu0Rl-1" value="Zigbee Hub 등록자" style="whiteSpace=wrap;html=1;rounded=1;shadow=1;strokeWidth=1;fontSize=16;align=center;fillColor=#f5f5f5;strokeColor=#666666;" vertex="1" parent="1">
          <mxGeometry x="858.38" y="1880" width="210" height="40" as="geometry" />
        </mxCell>
        <mxCell id="eHFhJmLxudtT3SvOu0Rl-9" style="edgeStyle=orthogonalEdgeStyle;rounded=0;orthogonalLoop=1;jettySize=auto;html=1;exitX=0.5;exitY=1;exitDx=0;exitDy=0;" edge="1" parent="1" source="eHFhJmLxudtT3SvOu0Rl-2" target="eHFhJmLxudtT3SvOu0Rl-6">
          <mxGeometry relative="1" as="geometry" />
        </mxCell>
        <mxCell id="eHFhJmLxudtT3SvOu0Rl-2" value="등록자 인증 요청" style="whiteSpace=wrap;html=1;rounded=1;shadow=1;strokeWidth=1;fontSize=16;align=center;fillColor=#f5f5f5;strokeColor=#666666;" vertex="1" parent="1">
          <mxGeometry x="900.88" y="1960" width="125" height="45" as="geometry" />
        </mxCell>
        <mxCell id="eHFhJmLxudtT3SvOu0Rl-3" value="주변 스마트 홈 기기 등록" style="whiteSpace=wrap;html=1;rounded=1;shadow=1;strokeWidth=1;fontSize=16;align=center;fillColor=#f5f5f5;strokeColor=#666666;" vertex="1" parent="1">
          <mxGeometry x="900.13" y="2289.5" width="125" height="45" as="geometry" />
        </mxCell>
        <mxCell id="eHFhJmLxudtT3SvOu0Rl-12" style="edgeStyle=orthogonalEdgeStyle;rounded=0;orthogonalLoop=1;jettySize=auto;html=1;exitX=0.5;exitY=1;exitDx=0;exitDy=0;" edge="1" parent="1" source="eHFhJmLxudtT3SvOu0Rl-5" target="eHFhJmLxudtT3SvOu0Rl-8">
          <mxGeometry relative="1" as="geometry" />
        </mxCell>
        <mxCell id="eHFhJmLxudtT3SvOu0Rl-5" value="주변 스마트 홈 기기 탐색" style="whiteSpace=wrap;html=1;rounded=1;shadow=1;strokeWidth=1;fontSize=16;align=center;fillColor=#f5f5f5;strokeColor=#666666;" vertex="1" parent="1">
          <mxGeometry x="900.13" y="2122.62" width="125" height="45" as="geometry" />
        </mxCell>
        <mxCell id="eHFhJmLxudtT3SvOu0Rl-11" style="edgeStyle=orthogonalEdgeStyle;rounded=0;orthogonalLoop=1;jettySize=auto;html=1;exitX=0.5;exitY=1;exitDx=0;exitDy=0;" edge="1" parent="1" source="eHFhJmLxudtT3SvOu0Rl-6" target="eHFhJmLxudtT3SvOu0Rl-5">
          <mxGeometry relative="1" as="geometry" />
        </mxCell>
        <mxCell id="eHFhJmLxudtT3SvOu0Rl-6" value="접속 비밀번호&amp;nbsp;&lt;div&gt;설정/접속&lt;/div&gt;" style="whiteSpace=wrap;html=1;rounded=1;shadow=1;strokeWidth=1;fontSize=16;align=center;fillColor=#f5f5f5;strokeColor=#666666;" vertex="1" parent="1">
          <mxGeometry x="900.13" y="2046.75" width="125" height="43.25" as="geometry" />
        </mxCell>
        <mxCell id="eHFhJmLxudtT3SvOu0Rl-14" style="edgeStyle=orthogonalEdgeStyle;rounded=0;orthogonalLoop=1;jettySize=auto;html=1;exitX=0.5;exitY=1;exitDx=0;exitDy=0;" edge="1" parent="1" source="eHFhJmLxudtT3SvOu0Rl-8" target="eHFhJmLxudtT3SvOu0Rl-3">
          <mxGeometry relative="1" as="geometry" />
        </mxCell>
        <mxCell id="eHFhJmLxudtT3SvOu0Rl-42" style="edgeStyle=orthogonalEdgeStyle;rounded=0;orthogonalLoop=1;jettySize=auto;html=1;exitX=1;exitY=0.5;exitDx=0;exitDy=0;entryX=0;entryY=0.5;entryDx=0;entryDy=0;" edge="1" parent="1" source="eHFhJmLxudtT3SvOu0Rl-8" target="fRdi2J-xlvi1yjMBcKha-100">
          <mxGeometry relative="1" as="geometry" />
        </mxCell>
        <mxCell id="eHFhJmLxudtT3SvOu0Rl-8" value="주변 스마트 홈 기기&amp;nbsp;목록 확인" style="whiteSpace=wrap;html=1;rounded=1;shadow=1;strokeWidth=1;fontSize=16;align=center;fillColor=#f5f5f5;strokeColor=#666666;" vertex="1" parent="1">
          <mxGeometry x="870.88" y="2207.5" width="183.5" height="45" as="geometry" />
        </mxCell>
        <mxCell id="eHFhJmLxudtT3SvOu0Rl-20" style="edgeStyle=orthogonalEdgeStyle;rounded=0;orthogonalLoop=1;jettySize=auto;html=1;exitX=0.5;exitY=1;exitDx=0;exitDy=0;" edge="1" parent="1" source="eHFhJmLxudtT3SvOu0Rl-16" target="fRdi2J-xlvi1yjMBcKha-234">
          <mxGeometry relative="1" as="geometry" />
        </mxCell>
        <mxCell id="eHFhJmLxudtT3SvOu0Rl-16" value="지그비 허브 접속" style="whiteSpace=wrap;html=1;rounded=1;shadow=1;strokeWidth=1;fontSize=16;align=center;fillColor=#f5f5f5;strokeColor=#666666;" vertex="1" parent="1">
          <mxGeometry x="664.13" y="1960" width="125" height="50" as="geometry" />
        </mxCell>
        <mxCell id="eHFhJmLxudtT3SvOu0Rl-71" style="edgeStyle=orthogonalEdgeStyle;rounded=0;orthogonalLoop=1;jettySize=auto;html=1;exitX=0.5;exitY=1;exitDx=0;exitDy=0;" edge="1" parent="1" source="eHFhJmLxudtT3SvOu0Rl-26" target="eHFhJmLxudtT3SvOu0Rl-59">
          <mxGeometry relative="1" as="geometry" />
        </mxCell>
        <mxCell id="eHFhJmLxudtT3SvOu0Rl-72" style="edgeStyle=orthogonalEdgeStyle;rounded=0;orthogonalLoop=1;jettySize=auto;html=1;exitX=0.5;exitY=1;exitDx=0;exitDy=0;" edge="1" parent="1" source="eHFhJmLxudtT3SvOu0Rl-26" target="eHFhJmLxudtT3SvOu0Rl-47">
          <mxGeometry relative="1" as="geometry" />
        </mxCell>
        <mxCell id="eHFhJmLxudtT3SvOu0Rl-26" value="스마트 홈 정보&lt;div&gt;공유 게시판 선택&lt;/div&gt;" style="whiteSpace=wrap;html=1;rounded=1;shadow=1;strokeWidth=1;fontSize=16;align=center;fillColor=#f5f5f5;strokeColor=#666666;" vertex="1" parent="1">
          <mxGeometry x="-1470" y="2072.62" width="590" height="45" as="geometry" />
        </mxCell>
        <mxCell id="eHFhJmLxudtT3SvOu0Rl-79" style="edgeStyle=orthogonalEdgeStyle;rounded=0;orthogonalLoop=1;jettySize=auto;html=1;exitX=0.5;exitY=1;exitDx=0;exitDy=0;" edge="1" parent="1" source="eHFhJmLxudtT3SvOu0Rl-28" target="eHFhJmLxudtT3SvOu0Rl-67">
          <mxGeometry relative="1" as="geometry" />
        </mxCell>
        <mxCell id="eHFhJmLxudtT3SvOu0Rl-80" style="edgeStyle=orthogonalEdgeStyle;rounded=0;orthogonalLoop=1;jettySize=auto;html=1;exitX=0.5;exitY=1;exitDx=0;exitDy=0;" edge="1" parent="1" source="eHFhJmLxudtT3SvOu0Rl-28" target="eHFhJmLxudtT3SvOu0Rl-31">
          <mxGeometry relative="1" as="geometry" />
        </mxCell>
        <mxCell id="eHFhJmLxudtT3SvOu0Rl-28" value="자유 게시판 선택" style="whiteSpace=wrap;html=1;rounded=1;shadow=1;strokeWidth=1;fontSize=16;align=center;fillColor=#f5f5f5;strokeColor=#666666;" vertex="1" parent="1">
          <mxGeometry x="-830" y="2070.13" width="440" height="45" as="geometry" />
        </mxCell>
        <mxCell id="eHFhJmLxudtT3SvOu0Rl-82" style="edgeStyle=orthogonalEdgeStyle;rounded=0;orthogonalLoop=1;jettySize=auto;html=1;exitX=0.5;exitY=1;exitDx=0;exitDy=0;" edge="1" parent="1" source="eHFhJmLxudtT3SvOu0Rl-31" target="eHFhJmLxudtT3SvOu0Rl-81">
          <mxGeometry relative="1" as="geometry" />
        </mxCell>
        <mxCell id="eHFhJmLxudtT3SvOu0Rl-31" value="게시글 작성" style="whiteSpace=wrap;html=1;rounded=1;shadow=1;strokeWidth=1;fontSize=16;align=center;fillColor=#f5f5f5;strokeColor=#666666;" vertex="1" parent="1">
          <mxGeometry x="-538" y="2171.75" width="125" height="45" as="geometry" />
        </mxCell>
        <mxCell id="eHFhJmLxudtT3SvOu0Rl-33" value="게시글 수정" style="whiteSpace=wrap;html=1;rounded=1;shadow=1;strokeWidth=1;fontSize=16;align=center;fillColor=#f5f5f5;strokeColor=#666666;" vertex="1" parent="1">
          <mxGeometry x="-539" y="2332.5" width="125" height="45" as="geometry" />
        </mxCell>
        <mxCell id="eHFhJmLxudtT3SvOu0Rl-34" value="게시글 삭제" style="whiteSpace=wrap;html=1;rounded=1;shadow=1;strokeWidth=1;fontSize=16;align=center;fillColor=#f5f5f5;strokeColor=#666666;" vertex="1" parent="1">
          <mxGeometry x="-539" y="2410" width="125" height="45" as="geometry" />
        </mxCell>
        <mxCell id="eHFhJmLxudtT3SvOu0Rl-37" value="스마트 홈 추천 제품 선택" style="whiteSpace=wrap;html=1;rounded=1;shadow=1;strokeWidth=1;fontSize=16;align=center;fillColor=#f5f5f5;strokeColor=#666666;" vertex="1" parent="1">
          <mxGeometry x="-192" y="2177.5" width="125" height="45" as="geometry" />
        </mxCell>
        <mxCell id="eHFhJmLxudtT3SvOu0Rl-41" style="edgeStyle=orthogonalEdgeStyle;rounded=0;orthogonalLoop=1;jettySize=auto;html=1;exitX=1;exitY=0.5;exitDx=0;exitDy=0;" edge="1" parent="1" source="eHFhJmLxudtT3SvOu0Rl-38" target="fRdi2J-xlvi1yjMBcKha-154">
          <mxGeometry relative="1" as="geometry">
            <Array as="points">
              <mxPoint x="120" y="2090" />
              <mxPoint x="120" y="2310" />
            </Array>
          </mxGeometry>
        </mxCell>
        <mxCell id="eHFhJmLxudtT3SvOu0Rl-38" value="미등록 스마트 홈 기기&amp;nbsp;&lt;span style=&quot;background-color: initial;&quot;&gt;등록 요청&lt;/span&gt;" style="whiteSpace=wrap;html=1;rounded=1;shadow=1;strokeWidth=1;fontSize=16;align=center;fillColor=#f5f5f5;strokeColor=#666666;" vertex="1" parent="1">
          <mxGeometry x="-40" y="2075.12" width="125" height="45" as="geometry" />
        </mxCell>
        <mxCell id="eHFhJmLxudtT3SvOu0Rl-39" value="커뮤니티" style="whiteSpace=wrap;html=1;rounded=1;shadow=1;strokeWidth=1;fontSize=16;align=center;fillColor=#f5f5f5;strokeColor=#666666;" vertex="1" parent="1">
          <mxGeometry x="-1470" y="2016.13" width="1080" height="40" as="geometry" />
        </mxCell>
        <mxCell id="eHFhJmLxudtT3SvOu0Rl-40" value="IoT" style="whiteSpace=wrap;html=1;rounded=1;shadow=1;strokeWidth=1;fontSize=16;align=center;fillColor=#f5f5f5;strokeColor=#666666;" vertex="1" parent="1">
          <mxGeometry x="-360" y="2015.5" width="447.5" height="40" as="geometry" />
        </mxCell>
        <mxCell id="eHFhJmLxudtT3SvOu0Rl-43" value="&lt;div&gt;스마트홈 기기&lt;/div&gt;히스토리 조회" style="whiteSpace=wrap;html=1;rounded=1;shadow=1;strokeWidth=1;fontSize=16;align=center;fillColor=#f5f5f5;strokeColor=#666666;" vertex="1" parent="1">
          <mxGeometry x="-192" y="2072.62" width="125" height="50" as="geometry" />
        </mxCell>
        <mxCell id="eHFhJmLxudtT3SvOu0Rl-44" value="&lt;font style=&quot;font-size: 25px;&quot;&gt;Smart Application&lt;/font&gt;" style="whiteSpace=wrap;html=1;rounded=1;shadow=1;strokeWidth=1;fontSize=16;align=center;fillColor=#dae8fc;strokeColor=#6c8ebf;" vertex="1" parent="1">
          <mxGeometry x="-1830" y="1880" width="1931" height="40" as="geometry" />
        </mxCell>
        <mxCell id="eHFhJmLxudtT3SvOu0Rl-45" value="&lt;font style=&quot;font-size: 25px;&quot;&gt;Web Application&lt;/font&gt;" style="whiteSpace=wrap;html=1;rounded=1;shadow=1;strokeWidth=1;fontSize=16;align=center;fillColor=#dae8fc;strokeColor=#6c8ebf;" vertex="1" parent="1">
          <mxGeometry x="130" y="1880" width="230" height="40" as="geometry" />
        </mxCell>
        <mxCell id="eHFhJmLxudtT3SvOu0Rl-75" style="edgeStyle=orthogonalEdgeStyle;rounded=0;orthogonalLoop=1;jettySize=auto;html=1;exitX=0.5;exitY=1;exitDx=0;exitDy=0;" edge="1" parent="1" source="eHFhJmLxudtT3SvOu0Rl-47" target="fRdi2J-xlvi1yjMBcKha-88">
          <mxGeometry relative="1" as="geometry" />
        </mxCell>
        <mxCell id="eHFhJmLxudtT3SvOu0Rl-76" style="edgeStyle=orthogonalEdgeStyle;rounded=0;orthogonalLoop=1;jettySize=auto;html=1;exitX=0.5;exitY=1;exitDx=0;exitDy=0;" edge="1" parent="1" source="eHFhJmLxudtT3SvOu0Rl-47" target="eHFhJmLxudtT3SvOu0Rl-48">
          <mxGeometry relative="1" as="geometry" />
        </mxCell>
        <mxCell id="eHFhJmLxudtT3SvOu0Rl-47" value="게시글 작성" style="whiteSpace=wrap;html=1;rounded=1;shadow=1;strokeWidth=1;fontSize=16;align=center;fillColor=#f5f5f5;strokeColor=#666666;" vertex="1" parent="1">
          <mxGeometry x="-1170" y="2171.75" width="290" height="45" as="geometry" />
        </mxCell>
        <mxCell id="eHFhJmLxudtT3SvOu0Rl-48" value="스마트 홈 질문 카테고리 선택" style="whiteSpace=wrap;html=1;rounded=1;shadow=1;strokeWidth=1;fontSize=16;align=center;fillColor=#f5f5f5;strokeColor=#666666;" vertex="1" parent="1">
          <mxGeometry x="-1007.5" y="2256.88" width="125" height="42.5" as="geometry" />
        </mxCell>
        <mxCell id="eHFhJmLxudtT3SvOu0Rl-50" value="게시글 등록" style="whiteSpace=wrap;html=1;rounded=1;shadow=1;strokeWidth=1;fontSize=16;align=center;fillColor=#f5f5f5;strokeColor=#666666;" vertex="1" parent="1">
          <mxGeometry x="-1170" y="2335" width="125" height="45" as="geometry" />
        </mxCell>
        <mxCell id="eHFhJmLxudtT3SvOu0Rl-51" value="게시글 등록" style="whiteSpace=wrap;html=1;rounded=1;shadow=1;strokeWidth=1;fontSize=16;align=center;fillColor=#f5f5f5;strokeColor=#666666;" vertex="1" parent="1">
          <mxGeometry x="-1007.5" y="2335" width="125" height="45" as="geometry" />
        </mxCell>
        <mxCell id="eHFhJmLxudtT3SvOu0Rl-53" value="댓글 작성" style="whiteSpace=wrap;html=1;rounded=1;shadow=1;strokeWidth=1;fontSize=16;align=center;fillColor=#f5f5f5;strokeColor=#666666;" vertex="1" parent="1">
          <mxGeometry x="-1330" y="2254.75" width="125" height="45" as="geometry" />
        </mxCell>
        <mxCell id="eHFhJmLxudtT3SvOu0Rl-54" value="게시글 수정" style="whiteSpace=wrap;html=1;rounded=1;shadow=1;strokeWidth=1;fontSize=16;align=center;fillColor=#f5f5f5;strokeColor=#666666;" vertex="1" parent="1">
          <mxGeometry x="-1007.5" y="2416.38" width="125" height="45" as="geometry" />
        </mxCell>
        <mxCell id="eHFhJmLxudtT3SvOu0Rl-55" value="게시글 삭제" style="whiteSpace=wrap;html=1;rounded=1;shadow=1;strokeWidth=1;fontSize=16;align=center;fillColor=#f5f5f5;strokeColor=#666666;" vertex="1" parent="1">
          <mxGeometry x="-1007.5" y="2493.88" width="125" height="45" as="geometry" />
        </mxCell>
        <mxCell id="eHFhJmLxudtT3SvOu0Rl-56" value="댓글 수정" style="whiteSpace=wrap;html=1;rounded=1;shadow=1;strokeWidth=1;fontSize=16;align=center;fillColor=#f5f5f5;strokeColor=#666666;" vertex="1" parent="1">
          <mxGeometry x="-1330" y="2337.5" width="125" height="45" as="geometry" />
        </mxCell>
        <mxCell id="eHFhJmLxudtT3SvOu0Rl-57" value="댓글 삭제" style="whiteSpace=wrap;html=1;rounded=1;shadow=1;strokeWidth=1;fontSize=16;align=center;fillColor=#f5f5f5;strokeColor=#666666;" vertex="1" parent="1">
          <mxGeometry x="-1330" y="2418" width="125" height="45" as="geometry" />
        </mxCell>
        <mxCell id="eHFhJmLxudtT3SvOu0Rl-73" style="edgeStyle=orthogonalEdgeStyle;rounded=0;orthogonalLoop=1;jettySize=auto;html=1;exitX=0.5;exitY=1;exitDx=0;exitDy=0;" edge="1" parent="1" source="eHFhJmLxudtT3SvOu0Rl-59" target="eHFhJmLxudtT3SvOu0Rl-60">
          <mxGeometry relative="1" as="geometry" />
        </mxCell>
        <mxCell id="eHFhJmLxudtT3SvOu0Rl-74" style="edgeStyle=orthogonalEdgeStyle;rounded=0;orthogonalLoop=1;jettySize=auto;html=1;exitX=0.5;exitY=1;exitDx=0;exitDy=0;" edge="1" parent="1" source="eHFhJmLxudtT3SvOu0Rl-59" target="eHFhJmLxudtT3SvOu0Rl-53">
          <mxGeometry relative="1" as="geometry" />
        </mxCell>
        <mxCell id="eHFhJmLxudtT3SvOu0Rl-59" value="게시글 조회" style="whiteSpace=wrap;html=1;rounded=1;shadow=1;strokeWidth=1;fontSize=16;align=center;fillColor=#f5f5f5;strokeColor=#666666;" vertex="1" parent="1">
          <mxGeometry x="-1470" y="2171.75" width="270" height="45" as="geometry" />
        </mxCell>
        <mxCell id="eHFhJmLxudtT3SvOu0Rl-60" value="게시글 추천" style="whiteSpace=wrap;html=1;rounded=1;shadow=1;strokeWidth=1;fontSize=16;align=center;fillColor=#f5f5f5;strokeColor=#666666;" vertex="1" parent="1">
          <mxGeometry x="-1470" y="2255.25" width="125" height="45" as="geometry" />
        </mxCell>
        <mxCell id="eHFhJmLxudtT3SvOu0Rl-62" value="게시글 추천 취소" style="whiteSpace=wrap;html=1;rounded=1;shadow=1;strokeWidth=1;fontSize=16;align=center;fillColor=#f5f5f5;strokeColor=#666666;" vertex="1" parent="1">
          <mxGeometry x="-1470" y="2337.5" width="125" height="45" as="geometry" />
        </mxCell>
        <mxCell id="eHFhJmLxudtT3SvOu0Rl-64" value="댓글 작성" style="whiteSpace=wrap;html=1;rounded=1;shadow=1;strokeWidth=1;fontSize=16;align=center;fillColor=#f5f5f5;strokeColor=#666666;" vertex="1" parent="1">
          <mxGeometry x="-700" y="2257.9999999999995" width="125" height="45" as="geometry" />
        </mxCell>
        <mxCell id="eHFhJmLxudtT3SvOu0Rl-65" value="댓글 수정" style="whiteSpace=wrap;html=1;rounded=1;shadow=1;strokeWidth=1;fontSize=16;align=center;fillColor=#f5f5f5;strokeColor=#666666;" vertex="1" parent="1">
          <mxGeometry x="-700" y="2334.9999999999995" width="125" height="45" as="geometry" />
        </mxCell>
        <mxCell id="eHFhJmLxudtT3SvOu0Rl-66" value="댓글 삭제" style="whiteSpace=wrap;html=1;rounded=1;shadow=1;strokeWidth=1;fontSize=16;align=center;fillColor=#f5f5f5;strokeColor=#666666;" vertex="1" parent="1">
          <mxGeometry x="-700" y="2409.9999999999995" width="125" height="45" as="geometry" />
        </mxCell>
        <mxCell id="eHFhJmLxudtT3SvOu0Rl-77" style="edgeStyle=orthogonalEdgeStyle;rounded=0;orthogonalLoop=1;jettySize=auto;html=1;exitX=0.5;exitY=1;exitDx=0;exitDy=0;" edge="1" parent="1" source="eHFhJmLxudtT3SvOu0Rl-67" target="eHFhJmLxudtT3SvOu0Rl-68">
          <mxGeometry relative="1" as="geometry" />
        </mxCell>
        <mxCell id="eHFhJmLxudtT3SvOu0Rl-78" style="edgeStyle=orthogonalEdgeStyle;rounded=0;orthogonalLoop=1;jettySize=auto;html=1;exitX=0.5;exitY=1;exitDx=0;exitDy=0;" edge="1" parent="1" source="eHFhJmLxudtT3SvOu0Rl-67" target="eHFhJmLxudtT3SvOu0Rl-64">
          <mxGeometry relative="1" as="geometry" />
        </mxCell>
        <mxCell id="eHFhJmLxudtT3SvOu0Rl-67" value="게시글 조회" style="whiteSpace=wrap;html=1;rounded=1;shadow=1;strokeWidth=1;fontSize=16;align=center;fillColor=#f5f5f5;strokeColor=#666666;" vertex="1" parent="1">
          <mxGeometry x="-840" y="2171.7499999999995" width="270" height="45" as="geometry" />
        </mxCell>
        <mxCell id="eHFhJmLxudtT3SvOu0Rl-68" value="게시글 추천" style="whiteSpace=wrap;html=1;rounded=1;shadow=1;strokeWidth=1;fontSize=16;align=center;fillColor=#f5f5f5;strokeColor=#666666;" vertex="1" parent="1">
          <mxGeometry x="-840" y="2258.4999999999995" width="125" height="45" as="geometry" />
        </mxCell>
        <mxCell id="eHFhJmLxudtT3SvOu0Rl-69" value="게시글 추천 취소" style="whiteSpace=wrap;html=1;rounded=1;shadow=1;strokeWidth=1;fontSize=16;align=center;fillColor=#f5f5f5;strokeColor=#666666;" vertex="1" parent="1">
          <mxGeometry x="-840" y="2334.9999999999995" width="125" height="45" as="geometry" />
        </mxCell>
        <mxCell id="eHFhJmLxudtT3SvOu0Rl-81" value="게시글 등록" style="whiteSpace=wrap;html=1;rounded=1;shadow=1;strokeWidth=1;fontSize=16;align=center;fillColor=#f5f5f5;strokeColor=#666666;" vertex="1" parent="1">
          <mxGeometry x="-538" y="2258" width="125" height="45" as="geometry" />
        </mxCell>
        <mxCell id="eHFhJmLxudtT3SvOu0Rl-85" value="챗봇" style="whiteSpace=wrap;html=1;rounded=1;shadow=1;strokeWidth=1;fontSize=16;align=center;fillColor=#f5f5f5;strokeColor=#666666;" vertex="1" parent="1">
          <mxGeometry x="-1830" y="2016.13" width="327.5" height="40" as="geometry" />
        </mxCell>
        <mxCell id="eHFhJmLxudtT3SvOu0Rl-99" style="edgeStyle=orthogonalEdgeStyle;rounded=0;orthogonalLoop=1;jettySize=auto;html=1;exitX=0.5;exitY=1;exitDx=0;exitDy=0;" edge="1" parent="1" source="eHFhJmLxudtT3SvOu0Rl-86" target="eHFhJmLxudtT3SvOu0Rl-88">
          <mxGeometry relative="1" as="geometry" />
        </mxCell>
        <mxCell id="eHFhJmLxudtT3SvOu0Rl-101" style="edgeStyle=orthogonalEdgeStyle;rounded=0;orthogonalLoop=1;jettySize=auto;html=1;exitX=0.5;exitY=1;exitDx=0;exitDy=0;" edge="1" parent="1" source="eHFhJmLxudtT3SvOu0Rl-86" target="eHFhJmLxudtT3SvOu0Rl-96">
          <mxGeometry relative="1" as="geometry" />
        </mxCell>
        <mxCell id="eHFhJmLxudtT3SvOu0Rl-86" value="질문 입력" style="whiteSpace=wrap;html=1;rounded=1;shadow=1;strokeWidth=1;fontSize=16;align=center;fillColor=#f5f5f5;strokeColor=#666666;" vertex="1" parent="1">
          <mxGeometry x="-1830" y="2075.62" width="291.25" height="45" as="geometry" />
        </mxCell>
        <mxCell id="eHFhJmLxudtT3SvOu0Rl-88" value="추천된 게시글&amp;nbsp;&lt;div&gt;확인&lt;/div&gt;" style="whiteSpace=wrap;html=1;rounded=1;shadow=1;strokeWidth=1;fontSize=16;align=center;fillColor=#f5f5f5;strokeColor=#666666;" vertex="1" parent="1">
          <mxGeometry x="-1663.75" y="2171.75" width="125" height="45" as="geometry" />
        </mxCell>
        <mxCell id="eHFhJmLxudtT3SvOu0Rl-96" value="추천된 스마트 홈 기기 확인" style="whiteSpace=wrap;html=1;rounded=1;shadow=1;strokeWidth=1;fontSize=16;align=center;fillColor=#f5f5f5;strokeColor=#666666;" vertex="1" parent="1">
          <mxGeometry x="-1830" y="2172.5" width="125" height="45" as="geometry" />
        </mxCell>
        <mxCell id="eHFhJmLxudtT3SvOu0Rl-104" style="edgeStyle=orthogonalEdgeStyle;rounded=0;orthogonalLoop=1;jettySize=auto;html=1;exitX=0.5;exitY=1;exitDx=0;exitDy=0;" edge="1" parent="1" source="eHFhJmLxudtT3SvOu0Rl-102" target="fRdi2J-xlvi1yjMBcKha-177">
          <mxGeometry relative="1" as="geometry">
            <Array as="points">
              <mxPoint x="553" y="2560" />
              <mxPoint x="20" y="2560" />
            </Array>
          </mxGeometry>
        </mxCell>
        <mxCell id="eHFhJmLxudtT3SvOu0Rl-102" value="음성 제어" style="whiteSpace=wrap;html=1;rounded=1;shadow=1;strokeWidth=1;fontSize=16;align=center;fillColor=#f5f5f5;strokeColor=#666666;" vertex="1" parent="1">
          <mxGeometry x="490" y="2421.51" width="125" height="50" as="geometry" />
        </mxCell>
        <mxCell id="eHFhJmLxudtT3SvOu0Rl-108" value="" style="swimlane;startSize=0;" vertex="1" parent="1">
          <mxGeometry x="-1910" y="1760" width="3200" height="1720" as="geometry" />
        </mxCell>
      </root>
    </mxGraphModel>
  </diagram>
</mxfile>
